<mxfile host="app.diagrams.net" modified="2022-08-21T07:38:56.128Z" agent="5.0 (Windows NT 10.0; Win64; x64) AppleWebKit/537.36 (KHTML, like Gecko) Chrome/104.0.0.0 Safari/537.36" etag="LVE69dDySapF5A1nS62m" version="20.2.3" type="github">
  <diagram id="e0TdFbFAsQixwd9OK6E7" name="Página-1">
    <mxGraphModel dx="1702" dy="462" grid="1" gridSize="10" guides="1" tooltips="1" connect="1" arrows="1" fold="1" page="1" pageScale="1" pageWidth="827" pageHeight="1169" math="0" shadow="0">
      <root>
        <mxCell id="0" />
        <mxCell id="1" parent="0" />
        <mxCell id="IaQG-3UDyw1qAwTpZNrZ-2" value="Detalles del producto" style="swimlane;fontStyle=0;childLayout=stackLayout;horizontal=1;startSize=30;horizontalStack=0;resizeParent=1;resizeParentMax=0;resizeLast=0;collapsible=1;marginBottom=0;labelBackgroundColor=#FFFF33;" parent="1" vertex="1">
          <mxGeometry x="100" y="270" width="190" height="300" as="geometry">
            <mxRectangle x="100" y="270" width="90" height="30" as="alternateBounds" />
          </mxGeometry>
        </mxCell>
        <mxCell id="IaQG-3UDyw1qAwTpZNrZ-3" value="ID" style="text;strokeColor=none;fillColor=none;align=left;verticalAlign=middle;spacingLeft=4;spacingRight=4;overflow=hidden;points=[[0,0.5],[1,0.5]];portConstraint=eastwest;rotatable=0;labelBackgroundColor=none;" parent="IaQG-3UDyw1qAwTpZNrZ-2" vertex="1">
          <mxGeometry y="30" width="190" height="30" as="geometry" />
        </mxCell>
        <mxCell id="IaQG-3UDyw1qAwTpZNrZ-4" value="Nombre" style="text;strokeColor=none;fillColor=none;align=left;verticalAlign=middle;spacingLeft=4;spacingRight=4;overflow=hidden;points=[[0,0.5],[1,0.5]];portConstraint=eastwest;rotatable=0;labelBackgroundColor=none;" parent="IaQG-3UDyw1qAwTpZNrZ-2" vertex="1">
          <mxGeometry y="60" width="190" height="30" as="geometry" />
        </mxCell>
        <mxCell id="IaQG-3UDyw1qAwTpZNrZ-10" value="Imagen del producto" style="text;strokeColor=none;fillColor=none;align=left;verticalAlign=middle;spacingLeft=4;spacingRight=4;overflow=hidden;points=[[0,0.5],[1,0.5]];portConstraint=eastwest;rotatable=0;" parent="IaQG-3UDyw1qAwTpZNrZ-2" vertex="1">
          <mxGeometry y="90" width="190" height="30" as="geometry" />
        </mxCell>
        <mxCell id="IaQG-3UDyw1qAwTpZNrZ-5" value="Descripcion" style="text;strokeColor=none;fillColor=none;align=left;verticalAlign=middle;spacingLeft=4;spacingRight=4;overflow=hidden;points=[[0,0.5],[1,0.5]];portConstraint=eastwest;rotatable=0;" parent="IaQG-3UDyw1qAwTpZNrZ-2" vertex="1">
          <mxGeometry y="120" width="190" height="30" as="geometry" />
        </mxCell>
        <mxCell id="IaQG-3UDyw1qAwTpZNrZ-7" value="Costo" style="text;strokeColor=none;fillColor=none;align=left;verticalAlign=middle;spacingLeft=4;spacingRight=4;overflow=hidden;points=[[0,0.5],[1,0.5]];portConstraint=eastwest;rotatable=0;" parent="IaQG-3UDyw1qAwTpZNrZ-2" vertex="1">
          <mxGeometry y="150" width="190" height="30" as="geometry" />
        </mxCell>
        <mxCell id="IaQG-3UDyw1qAwTpZNrZ-8" value="Moneda" style="text;strokeColor=none;fillColor=none;align=left;verticalAlign=middle;spacingLeft=4;spacingRight=4;overflow=hidden;points=[[0,0.5],[1,0.5]];portConstraint=eastwest;rotatable=0;" parent="IaQG-3UDyw1qAwTpZNrZ-2" vertex="1">
          <mxGeometry y="180" width="190" height="30" as="geometry" />
        </mxCell>
        <mxCell id="IaQG-3UDyw1qAwTpZNrZ-9" value="Vendidos" style="text;strokeColor=none;fillColor=none;align=left;verticalAlign=middle;spacingLeft=4;spacingRight=4;overflow=hidden;points=[[0,0.5],[1,0.5]];portConstraint=eastwest;rotatable=0;" parent="IaQG-3UDyw1qAwTpZNrZ-2" vertex="1">
          <mxGeometry y="210" width="190" height="30" as="geometry" />
        </mxCell>
        <mxCell id="IaQG-3UDyw1qAwTpZNrZ-35" style="edgeStyle=orthogonalEdgeStyle;rounded=0;orthogonalLoop=1;jettySize=auto;html=1;exitX=1;exitY=0.5;exitDx=0;exitDy=0;" parent="IaQG-3UDyw1qAwTpZNrZ-2" source="IaQG-3UDyw1qAwTpZNrZ-4" target="IaQG-3UDyw1qAwTpZNrZ-4" edge="1">
          <mxGeometry relative="1" as="geometry" />
        </mxCell>
        <mxCell id="iM6PjEeLOgD8BNEukQLI-3" value="Productos relacionados" style="text;strokeColor=none;fillColor=none;align=left;verticalAlign=middle;spacingLeft=4;spacingRight=4;overflow=hidden;points=[[0,0.5],[1,0.5]];portConstraint=eastwest;rotatable=0;" vertex="1" parent="IaQG-3UDyw1qAwTpZNrZ-2">
          <mxGeometry y="240" width="190" height="30" as="geometry" />
        </mxCell>
        <mxCell id="iM6PjEeLOgD8BNEukQLI-43" value="Comentarios" style="text;strokeColor=none;fillColor=none;align=left;verticalAlign=middle;spacingLeft=4;spacingRight=4;overflow=hidden;points=[[0,0.5],[1,0.5]];portConstraint=eastwest;rotatable=0;" vertex="1" parent="IaQG-3UDyw1qAwTpZNrZ-2">
          <mxGeometry y="270" width="190" height="30" as="geometry" />
        </mxCell>
        <mxCell id="IaQG-3UDyw1qAwTpZNrZ-11" value="Categorias" style="swimlane;fontStyle=0;childLayout=stackLayout;horizontal=1;startSize=30;horizontalStack=0;resizeParent=1;resizeParentMax=0;resizeLast=0;collapsible=1;marginBottom=0;labelBackgroundColor=#CCE5FF;" parent="1" vertex="1">
          <mxGeometry x="40" y="40" width="200" height="180" as="geometry" />
        </mxCell>
        <mxCell id="IaQG-3UDyw1qAwTpZNrZ-12" value="ID" style="text;strokeColor=none;fillColor=none;align=left;verticalAlign=middle;spacingLeft=4;spacingRight=4;overflow=hidden;points=[[0,0.5],[1,0.5]];portConstraint=eastwest;rotatable=0;" parent="IaQG-3UDyw1qAwTpZNrZ-11" vertex="1">
          <mxGeometry y="30" width="200" height="30" as="geometry" />
        </mxCell>
        <mxCell id="IaQG-3UDyw1qAwTpZNrZ-60" value="Descripcion" style="text;strokeColor=none;fillColor=none;align=left;verticalAlign=middle;spacingLeft=4;spacingRight=4;overflow=hidden;points=[[0,0.5],[1,0.5]];portConstraint=eastwest;rotatable=0;" parent="IaQG-3UDyw1qAwTpZNrZ-11" vertex="1">
          <mxGeometry y="60" width="200" height="30" as="geometry" />
        </mxCell>
        <mxCell id="IaQG-3UDyw1qAwTpZNrZ-13" value="Nombre de la Categoria" style="text;strokeColor=none;fillColor=none;align=left;verticalAlign=middle;spacingLeft=4;spacingRight=4;overflow=hidden;points=[[0,0.5],[1,0.5]];portConstraint=eastwest;rotatable=0;" parent="IaQG-3UDyw1qAwTpZNrZ-11" vertex="1">
          <mxGeometry y="90" width="200" height="30" as="geometry" />
        </mxCell>
        <mxCell id="IaQG-3UDyw1qAwTpZNrZ-14" value="Productos disponibles" style="text;strokeColor=none;fillColor=none;align=left;verticalAlign=middle;spacingLeft=4;spacingRight=4;overflow=hidden;points=[[0,0.5],[1,0.5]];portConstraint=eastwest;rotatable=0;" parent="IaQG-3UDyw1qAwTpZNrZ-11" vertex="1">
          <mxGeometry y="120" width="200" height="30" as="geometry" />
        </mxCell>
        <mxCell id="iM6PjEeLOgD8BNEukQLI-2" value="Imagen de la categoria" style="text;strokeColor=none;fillColor=none;align=left;verticalAlign=middle;spacingLeft=4;spacingRight=4;overflow=hidden;points=[[0,0.5],[1,0.5]];portConstraint=eastwest;rotatable=0;" vertex="1" parent="IaQG-3UDyw1qAwTpZNrZ-11">
          <mxGeometry y="150" width="200" height="30" as="geometry" />
        </mxCell>
        <mxCell id="IaQG-3UDyw1qAwTpZNrZ-19" value="Productos en venta(VENDEDOR)" style="swimlane;fontStyle=0;childLayout=stackLayout;horizontal=1;startSize=30;horizontalStack=0;resizeParent=1;resizeParentMax=0;resizeLast=0;collapsible=1;marginBottom=0;labelBackgroundColor=#66FF66;labelBorderColor=none;" parent="1" vertex="1">
          <mxGeometry x="414" y="300" width="220" height="300" as="geometry" />
        </mxCell>
        <mxCell id="IaQG-3UDyw1qAwTpZNrZ-20" value="Nombre" style="text;strokeColor=none;fillColor=none;align=left;verticalAlign=middle;spacingLeft=4;spacingRight=4;overflow=hidden;points=[[0,0.5],[1,0.5]];portConstraint=eastwest;rotatable=0;" parent="IaQG-3UDyw1qAwTpZNrZ-19" vertex="1">
          <mxGeometry y="30" width="220" height="30" as="geometry" />
        </mxCell>
        <mxCell id="IaQG-3UDyw1qAwTpZNrZ-21" value="Imagen del producto" style="text;strokeColor=none;fillColor=none;align=left;verticalAlign=middle;spacingLeft=4;spacingRight=4;overflow=hidden;points=[[0,0.5],[1,0.5]];portConstraint=eastwest;rotatable=0;" parent="IaQG-3UDyw1qAwTpZNrZ-19" vertex="1">
          <mxGeometry y="60" width="220" height="30" as="geometry" />
        </mxCell>
        <mxCell id="IaQG-3UDyw1qAwTpZNrZ-22" value="Descripcion " style="text;strokeColor=none;fillColor=none;align=left;verticalAlign=middle;spacingLeft=4;spacingRight=4;overflow=hidden;points=[[0,0.5],[1,0.5]];portConstraint=eastwest;rotatable=0;" parent="IaQG-3UDyw1qAwTpZNrZ-19" vertex="1">
          <mxGeometry y="90" width="220" height="30" as="geometry" />
        </mxCell>
        <mxCell id="IaQG-3UDyw1qAwTpZNrZ-28" value="Costo" style="text;strokeColor=none;fillColor=none;align=left;verticalAlign=middle;spacingLeft=4;spacingRight=4;overflow=hidden;points=[[0,0.5],[1,0.5]];portConstraint=eastwest;rotatable=0;" parent="IaQG-3UDyw1qAwTpZNrZ-19" vertex="1">
          <mxGeometry y="120" width="220" height="30" as="geometry" />
        </mxCell>
        <mxCell id="IaQG-3UDyw1qAwTpZNrZ-29" value="Moneda" style="text;strokeColor=none;fillColor=none;align=left;verticalAlign=middle;spacingLeft=4;spacingRight=4;overflow=hidden;points=[[0,0.5],[1,0.5]];portConstraint=eastwest;rotatable=0;" parent="IaQG-3UDyw1qAwTpZNrZ-19" vertex="1">
          <mxGeometry y="150" width="220" height="30" as="geometry" />
        </mxCell>
        <mxCell id="IaQG-3UDyw1qAwTpZNrZ-31" value="Stock" style="text;strokeColor=none;fillColor=none;align=left;verticalAlign=middle;spacingLeft=4;spacingRight=4;overflow=hidden;points=[[0,0.5],[1,0.5]];portConstraint=eastwest;rotatable=0;" parent="IaQG-3UDyw1qAwTpZNrZ-19" vertex="1">
          <mxGeometry y="180" width="220" height="30" as="geometry" />
        </mxCell>
        <mxCell id="IaQG-3UDyw1qAwTpZNrZ-30" value="Categoria" style="text;strokeColor=none;fillColor=none;align=left;verticalAlign=middle;spacingLeft=4;spacingRight=4;overflow=hidden;points=[[0,0.5],[1,0.5]];portConstraint=eastwest;rotatable=0;" parent="IaQG-3UDyw1qAwTpZNrZ-19" vertex="1">
          <mxGeometry y="210" width="220" height="30" as="geometry" />
        </mxCell>
        <mxCell id="IaQG-3UDyw1qAwTpZNrZ-40" value="Tipo de publicacion" style="text;strokeColor=none;fillColor=none;align=left;verticalAlign=middle;spacingLeft=4;spacingRight=4;overflow=hidden;points=[[0,0.5],[1,0.5]];portConstraint=eastwest;rotatable=0;" parent="IaQG-3UDyw1qAwTpZNrZ-19" vertex="1">
          <mxGeometry y="240" width="220" height="30" as="geometry" />
        </mxCell>
        <mxCell id="IaQG-3UDyw1qAwTpZNrZ-41" value="% de publicacion" style="text;strokeColor=none;fillColor=none;align=left;verticalAlign=middle;spacingLeft=4;spacingRight=4;overflow=hidden;points=[[0,0.5],[1,0.5]];portConstraint=eastwest;rotatable=0;" parent="IaQG-3UDyw1qAwTpZNrZ-19" vertex="1">
          <mxGeometry y="270" width="220" height="30" as="geometry" />
        </mxCell>
        <mxCell id="IaQG-3UDyw1qAwTpZNrZ-32" value="" style="endArrow=classic;startArrow=classic;html=1;rounded=0;entryX=0;entryY=0.5;entryDx=0;entryDy=0;exitX=1;exitY=0.5;exitDx=0;exitDy=0;" parent="1" source="IaQG-3UDyw1qAwTpZNrZ-4" target="IaQG-3UDyw1qAwTpZNrZ-20" edge="1">
          <mxGeometry width="50" height="50" relative="1" as="geometry">
            <mxPoint x="380" y="430" as="sourcePoint" />
            <mxPoint x="430" y="380" as="targetPoint" />
          </mxGeometry>
        </mxCell>
        <mxCell id="IaQG-3UDyw1qAwTpZNrZ-33" value="" style="endArrow=classic;startArrow=classic;html=1;rounded=0;" parent="1" source="IaQG-3UDyw1qAwTpZNrZ-10" target="IaQG-3UDyw1qAwTpZNrZ-21" edge="1">
          <mxGeometry width="50" height="50" relative="1" as="geometry">
            <mxPoint x="340" y="360" as="sourcePoint" />
            <mxPoint x="390" y="310" as="targetPoint" />
          </mxGeometry>
        </mxCell>
        <mxCell id="IaQG-3UDyw1qAwTpZNrZ-34" value="" style="endArrow=classic;startArrow=classic;html=1;rounded=0;entryX=0;entryY=0.5;entryDx=0;entryDy=0;" parent="1" source="IaQG-3UDyw1qAwTpZNrZ-5" target="IaQG-3UDyw1qAwTpZNrZ-22" edge="1">
          <mxGeometry width="50" height="50" relative="1" as="geometry">
            <mxPoint x="380" y="430" as="sourcePoint" />
            <mxPoint x="430" y="380" as="targetPoint" />
          </mxGeometry>
        </mxCell>
        <mxCell id="IaQG-3UDyw1qAwTpZNrZ-37" value="" style="endArrow=classic;startArrow=classic;html=1;rounded=0;" parent="1" source="IaQG-3UDyw1qAwTpZNrZ-7" target="IaQG-3UDyw1qAwTpZNrZ-28" edge="1">
          <mxGeometry width="50" height="50" relative="1" as="geometry">
            <mxPoint x="270" y="400" as="sourcePoint" />
            <mxPoint x="320" y="350" as="targetPoint" />
          </mxGeometry>
        </mxCell>
        <mxCell id="IaQG-3UDyw1qAwTpZNrZ-38" value="" style="endArrow=classic;startArrow=classic;html=1;rounded=0;" parent="1" source="IaQG-3UDyw1qAwTpZNrZ-8" target="IaQG-3UDyw1qAwTpZNrZ-29" edge="1">
          <mxGeometry width="50" height="50" relative="1" as="geometry">
            <mxPoint x="300" y="455" as="sourcePoint" />
            <mxPoint x="370.71067811865476" y="405" as="targetPoint" />
          </mxGeometry>
        </mxCell>
        <mxCell id="IaQG-3UDyw1qAwTpZNrZ-39" value="" style="endArrow=classic;startArrow=classic;html=1;rounded=0;" parent="1" source="IaQG-3UDyw1qAwTpZNrZ-9" target="IaQG-3UDyw1qAwTpZNrZ-31" edge="1">
          <mxGeometry width="50" height="50" relative="1" as="geometry">
            <mxPoint x="280" y="470" as="sourcePoint" />
            <mxPoint x="330" y="420" as="targetPoint" />
          </mxGeometry>
        </mxCell>
        <mxCell id="IaQG-3UDyw1qAwTpZNrZ-46" value="" style="edgeStyle=elbowEdgeStyle;elbow=vertical;endArrow=classic;html=1;rounded=0;entryX=0;entryY=0.5;entryDx=0;entryDy=0;exitDx=0;exitDy=0;startArrow=none;" parent="1" source="iM6PjEeLOgD8BNEukQLI-23" target="IaQG-3UDyw1qAwTpZNrZ-3" edge="1">
          <mxGeometry width="50" height="50" relative="1" as="geometry">
            <mxPoint x="40" y="280" as="sourcePoint" />
            <mxPoint x="90" y="230" as="targetPoint" />
            <Array as="points">
              <mxPoint x="-40" y="340" />
              <mxPoint x="10" y="170" />
            </Array>
          </mxGeometry>
        </mxCell>
        <mxCell id="IaQG-3UDyw1qAwTpZNrZ-61" value="" style="edgeStyle=segmentEdgeStyle;endArrow=classic;html=1;rounded=0;" parent="1" source="IaQG-3UDyw1qAwTpZNrZ-14" target="IaQG-3UDyw1qAwTpZNrZ-2" edge="1">
          <mxGeometry width="50" height="50" relative="1" as="geometry">
            <mxPoint x="240" y="170" as="sourcePoint" />
            <mxPoint x="350" y="260" as="targetPoint" />
            <Array as="points">
              <mxPoint x="350" y="170" />
              <mxPoint x="350" y="290" />
            </Array>
          </mxGeometry>
        </mxCell>
        <mxCell id="iM6PjEeLOgD8BNEukQLI-5" value="Carrito de compras" style="swimlane;fontStyle=0;childLayout=stackLayout;horizontal=1;startSize=30;horizontalStack=0;resizeParent=1;resizeParentMax=0;resizeLast=0;collapsible=1;marginBottom=0;labelBackgroundColor=#FFFFFF;labelBorderColor=none;html=0;" vertex="1" parent="1">
          <mxGeometry x="-200" y="85" width="140" height="90" as="geometry" />
        </mxCell>
        <mxCell id="iM6PjEeLOgD8BNEukQLI-6" value="Usuario" style="text;strokeColor=none;fillColor=none;align=left;verticalAlign=middle;spacingLeft=4;spacingRight=4;overflow=hidden;points=[[0,0.5],[1,0.5]];portConstraint=eastwest;rotatable=0;labelBackgroundColor=#FF66FF;labelBorderColor=none;html=0;" vertex="1" parent="iM6PjEeLOgD8BNEukQLI-5">
          <mxGeometry y="30" width="140" height="30" as="geometry" />
        </mxCell>
        <mxCell id="iM6PjEeLOgD8BNEukQLI-7" value="Articulos" style="text;strokeColor=none;fillColor=none;align=left;verticalAlign=middle;spacingLeft=4;spacingRight=4;overflow=hidden;points=[[0,0.5],[1,0.5]];portConstraint=eastwest;rotatable=0;labelBackgroundColor=#66FFB3;labelBorderColor=none;html=0;" vertex="1" parent="iM6PjEeLOgD8BNEukQLI-5">
          <mxGeometry y="60" width="140" height="30" as="geometry" />
        </mxCell>
        <mxCell id="iM6PjEeLOgD8BNEukQLI-9" value="Articulos del carrito" style="swimlane;fontStyle=0;childLayout=stackLayout;horizontal=1;startSize=30;horizontalStack=0;resizeParent=1;resizeParentMax=0;resizeLast=0;collapsible=1;marginBottom=0;labelBackgroundColor=none;labelBorderColor=none;html=0;" vertex="1" parent="1">
          <mxGeometry x="-180" y="270" width="140" height="210" as="geometry" />
        </mxCell>
        <mxCell id="iM6PjEeLOgD8BNEukQLI-10" value="ID" style="text;strokeColor=none;fillColor=none;align=left;verticalAlign=middle;spacingLeft=4;spacingRight=4;overflow=hidden;points=[[0,0.5],[1,0.5]];portConstraint=eastwest;rotatable=0;labelBackgroundColor=none;labelBorderColor=none;html=0;" vertex="1" parent="iM6PjEeLOgD8BNEukQLI-9">
          <mxGeometry y="30" width="140" height="30" as="geometry" />
        </mxCell>
        <mxCell id="iM6PjEeLOgD8BNEukQLI-11" value="Nombre" style="text;strokeColor=none;fillColor=none;align=left;verticalAlign=middle;spacingLeft=4;spacingRight=4;overflow=hidden;points=[[0,0.5],[1,0.5]];portConstraint=eastwest;rotatable=0;labelBackgroundColor=none;labelBorderColor=none;html=0;" vertex="1" parent="iM6PjEeLOgD8BNEukQLI-9">
          <mxGeometry y="60" width="140" height="30" as="geometry" />
        </mxCell>
        <mxCell id="iM6PjEeLOgD8BNEukQLI-12" value="Imagen del producto" style="text;strokeColor=none;fillColor=none;align=left;verticalAlign=middle;spacingLeft=4;spacingRight=4;overflow=hidden;points=[[0,0.5],[1,0.5]];portConstraint=eastwest;rotatable=0;labelBackgroundColor=none;labelBorderColor=none;html=0;" vertex="1" parent="iM6PjEeLOgD8BNEukQLI-9">
          <mxGeometry y="90" width="140" height="30" as="geometry" />
        </mxCell>
        <mxCell id="iM6PjEeLOgD8BNEukQLI-42" value="Cantidad" style="text;strokeColor=none;fillColor=none;align=left;verticalAlign=middle;spacingLeft=4;spacingRight=4;overflow=hidden;points=[[0,0.5],[1,0.5]];portConstraint=eastwest;rotatable=0;labelBackgroundColor=none;labelBorderColor=none;html=0;" vertex="1" parent="iM6PjEeLOgD8BNEukQLI-9">
          <mxGeometry y="120" width="140" height="30" as="geometry" />
        </mxCell>
        <mxCell id="iM6PjEeLOgD8BNEukQLI-41" value="Costo Unitario" style="text;strokeColor=none;fillColor=none;align=left;verticalAlign=middle;spacingLeft=4;spacingRight=4;overflow=hidden;points=[[0,0.5],[1,0.5]];portConstraint=eastwest;rotatable=0;labelBackgroundColor=none;labelBorderColor=none;html=0;" vertex="1" parent="iM6PjEeLOgD8BNEukQLI-9">
          <mxGeometry y="150" width="140" height="30" as="geometry" />
        </mxCell>
        <mxCell id="iM6PjEeLOgD8BNEukQLI-44" value="Moneda" style="text;strokeColor=none;fillColor=none;align=left;verticalAlign=middle;spacingLeft=4;spacingRight=4;overflow=hidden;points=[[0,0.5],[1,0.5]];portConstraint=eastwest;rotatable=0;labelBackgroundColor=none;labelBorderColor=none;html=0;" vertex="1" parent="iM6PjEeLOgD8BNEukQLI-9">
          <mxGeometry y="180" width="140" height="30" as="geometry" />
        </mxCell>
        <mxCell id="iM6PjEeLOgD8BNEukQLI-17" style="edgeStyle=orthogonalEdgeStyle;rounded=0;orthogonalLoop=1;jettySize=auto;html=1;entryX=-0.075;entryY=0.55;entryDx=0;entryDy=0;entryPerimeter=0;" edge="1" parent="1">
          <mxGeometry relative="1" as="geometry">
            <mxPoint x="-80" y="259.9999999999999" as="sourcePoint" />
            <mxPoint x="-80" y="259.9999999999999" as="targetPoint" />
          </mxGeometry>
        </mxCell>
        <mxCell id="iM6PjEeLOgD8BNEukQLI-21" value="" style="shape=waypoint;sketch=0;fillStyle=solid;size=6;pointerEvents=1;points=[];fillColor=none;resizable=0;rotatable=0;perimeter=centerPerimeter;snapToPoint=1;labelBackgroundColor=none;labelBorderColor=none;html=0;" vertex="1" parent="1">
          <mxGeometry x="120" y="110" width="40" height="40" as="geometry" />
        </mxCell>
        <mxCell id="iM6PjEeLOgD8BNEukQLI-22" value="" style="edgeStyle=segmentEdgeStyle;endArrow=none;html=1;rounded=0;" edge="1" parent="1" source="IaQG-3UDyw1qAwTpZNrZ-13" target="iM6PjEeLOgD8BNEukQLI-21">
          <mxGeometry width="50" height="50" relative="1" as="geometry">
            <mxPoint x="140" y="130" as="sourcePoint" />
            <mxPoint x="524" y="510" as="targetPoint" />
            <Array as="points" />
          </mxGeometry>
        </mxCell>
        <mxCell id="iM6PjEeLOgD8BNEukQLI-23" value="" style="shape=waypoint;sketch=0;fillStyle=solid;size=6;pointerEvents=1;points=[];fillColor=none;resizable=0;rotatable=0;perimeter=centerPerimeter;snapToPoint=1;labelBackgroundColor=none;labelBorderColor=none;html=0;" vertex="1" parent="1">
          <mxGeometry x="80" y="295" width="40" height="40" as="geometry" />
        </mxCell>
        <mxCell id="iM6PjEeLOgD8BNEukQLI-26" value="" style="edgeStyle=elbowEdgeStyle;elbow=vertical;endArrow=none;html=1;rounded=0;entryDx=0;entryDy=0;exitX=0;exitY=0.5;exitDx=0;exitDy=0;" edge="1" parent="1" source="IaQG-3UDyw1qAwTpZNrZ-12" target="iM6PjEeLOgD8BNEukQLI-23">
          <mxGeometry width="50" height="50" relative="1" as="geometry">
            <mxPoint x="40" y="85" as="sourcePoint" />
            <mxPoint x="100" y="315" as="targetPoint" />
            <Array as="points">
              <mxPoint x="70" y="315" />
              <mxPoint x="20" y="260" />
            </Array>
          </mxGeometry>
        </mxCell>
        <mxCell id="iM6PjEeLOgD8BNEukQLI-27" value="" style="shape=waypoint;sketch=0;fillStyle=solid;size=6;pointerEvents=1;points=[];fillColor=none;resizable=0;rotatable=0;perimeter=centerPerimeter;snapToPoint=1;labelBackgroundColor=none;labelBorderColor=none;html=0;" vertex="1" parent="1">
          <mxGeometry x="20" y="65" width="40" height="40" as="geometry" />
        </mxCell>
        <mxCell id="iM6PjEeLOgD8BNEukQLI-37" style="edgeStyle=orthogonalEdgeStyle;rounded=0;orthogonalLoop=1;jettySize=auto;html=1;" edge="1" parent="1" source="iM6PjEeLOgD8BNEukQLI-33">
          <mxGeometry relative="1" as="geometry">
            <mxPoint x="640" y="520" as="targetPoint" />
          </mxGeometry>
        </mxCell>
        <mxCell id="iM6PjEeLOgD8BNEukQLI-33" value="" style="shape=waypoint;sketch=0;fillStyle=solid;size=6;pointerEvents=1;points=[];fillColor=none;resizable=0;rotatable=0;perimeter=centerPerimeter;snapToPoint=1;labelBackgroundColor=none;labelBorderColor=none;html=0;" vertex="1" parent="1">
          <mxGeometry x="660" y="500" width="40" height="40" as="geometry" />
        </mxCell>
        <mxCell id="iM6PjEeLOgD8BNEukQLI-35" value="" style="edgeStyle=segmentEdgeStyle;endArrow=none;html=1;rounded=0;startArrow=none;entryDx=0;entryDy=0;" edge="1" parent="1" source="iM6PjEeLOgD8BNEukQLI-21" target="iM6PjEeLOgD8BNEukQLI-33">
          <mxGeometry width="50" height="50" relative="1" as="geometry">
            <mxPoint x="140" y="130" as="sourcePoint" />
            <mxPoint x="634" y="525" as="targetPoint" />
            <Array as="points">
              <mxPoint x="700" y="130" />
              <mxPoint x="700" y="525" />
            </Array>
          </mxGeometry>
        </mxCell>
        <mxCell id="iM6PjEeLOgD8BNEukQLI-38" value="" style="shape=waypoint;sketch=0;fillStyle=solid;size=6;pointerEvents=1;points=[];fillColor=none;resizable=0;rotatable=0;perimeter=centerPerimeter;snapToPoint=1;labelBackgroundColor=none;labelBorderColor=none;html=0;" vertex="1" parent="1">
          <mxGeometry x="290" y="785" width="40" height="40" as="geometry" />
        </mxCell>
        <mxCell id="iM6PjEeLOgD8BNEukQLI-47" value="" style="endArrow=classic;startArrow=classic;html=1;rounded=0;" edge="1" parent="1" source="iM6PjEeLOgD8BNEukQLI-11" target="IaQG-3UDyw1qAwTpZNrZ-4">
          <mxGeometry width="50" height="50" relative="1" as="geometry">
            <mxPoint x="-24" y="339.9999999999999" as="sourcePoint" />
            <mxPoint x="100" y="339.9999999999999" as="targetPoint" />
          </mxGeometry>
        </mxCell>
        <mxCell id="iM6PjEeLOgD8BNEukQLI-49" value="" style="endArrow=classic;startArrow=classic;html=1;rounded=0;entryX=0;entryY=0.5;entryDx=0;entryDy=0;" edge="1" parent="1" source="iM6PjEeLOgD8BNEukQLI-12" target="IaQG-3UDyw1qAwTpZNrZ-10">
          <mxGeometry width="50" height="50" relative="1" as="geometry">
            <mxPoint x="-40" y="369.9999999999999" as="sourcePoint" />
            <mxPoint x="84" y="369.9999999999999" as="targetPoint" />
          </mxGeometry>
        </mxCell>
        <mxCell id="iM6PjEeLOgD8BNEukQLI-54" value="" style="endArrow=classic;startArrow=classic;html=1;rounded=0;entryX=0;entryY=0.5;entryDx=0;entryDy=0;" edge="1" parent="1">
          <mxGeometry width="50" height="50" relative="1" as="geometry">
            <mxPoint x="-40" y="439.9999999999999" as="sourcePoint" />
            <mxPoint x="100" y="439.9999999999999" as="targetPoint" />
          </mxGeometry>
        </mxCell>
        <mxCell id="iM6PjEeLOgD8BNEukQLI-55" value="" style="endArrow=classic;startArrow=classic;html=1;rounded=0;entryX=0;entryY=0.5;entryDx=0;entryDy=0;" edge="1" parent="1">
          <mxGeometry width="50" height="50" relative="1" as="geometry">
            <mxPoint x="-40" y="470" as="sourcePoint" />
            <mxPoint x="100" y="470" as="targetPoint" />
          </mxGeometry>
        </mxCell>
      </root>
    </mxGraphModel>
  </diagram>
</mxfile>
